<?xml version="1.0" encoding="utf-8"?>
<!-- Generator: Adobe Illustrator 27.1.1, SVG Export Plug-In . SVG Version: 6.00 Build 0)  -->
<svg version="1.1"
	 id="svg307386" xmlns:cc="http://creativecommons.org/ns#" xmlns:dc="http://purl.org/dc/elements/1.1/" xmlns:svg="http://www.w3.org/2000/svg" xmlns:rdf="http://www.w3.org/1999/02/22-rdf-syntax-ns#"
	 xmlns="http://www.w3.org/2000/svg" xmlns:xlink="http://www.w3.org/1999/xlink" x="0px" y="0px" viewBox="0 0 753 89"
	 style="enable-background:new 0 0 753 89;" xml:space="preserve">
<style type="text/css">
	.st0{display:none;}
	.st1{fill:#AEA9A3;}
	.st2{fill:#A9A59F;}
	.st3{fill:#A5A09B;}
	.st4{fill:#A09C96;}
	.st5{fill:#9C9892;}
	.st6{fill:#97938E;}
	.st7{fill:#918D88;}
	.st8{fill:#8A8681;}
	.st9{fill:#827E79;}
	.st10{fill:#797571;}
	.st11{fill:#706C68;}
	.st12{fill:#676360;}
	.st13{display:inline;}
	.st14{display:inline;clip-path:url(#SVGID_00000090286865923717637680000007179132159984306831_);}
</style>
<g id="logo-group">
	<g id="logo-center" transform="translate(1.1368683772161603e-13 0)">
		<g class="st0">
		</g>
		<g id="slogan" transform="translate(0 0)" class="st0">
		</g>
		<g id="title" transform="translate(0 0)">
			<path id="path307395" class="st1" d="M48.5,30.4c-4.2-4.2-9.8-6.5-15.7-6.5c-5.9,0-11.6,2.3-15.8,6.5s-6.5,9.7-6.5,15.7
				s2.3,11.5,6.5,15.7c4.2,4.2,9.8,6.5,15.8,6.5c3.5,0,6.9-0.8,9.9-2.3c-1.2,4.4-5.2,7.5-9.9,7.5c-2.7,0-5.2-1-7.1-2.9l-8.2,8.6
				c4.2,4,9.6,6.1,15.3,6.1c5.9,0,11.6-2.3,15.8-6.5S55,69.1,55,63.2V46.1C55,40.1,52.7,34.6,48.5,30.4L48.5,30.4z M32.8,56.4
				c-5.7,0-10.4-4.6-10.4-10.3s4.7-10.4,10.4-10.4c5.7,0,10.3,4.7,10.3,10.4S38.5,56.4,32.8,56.4z"/>
			<path id="path307397" class="st2" d="M94.7,68.5L94.7,68.5V49c0-7.6,6.2-13.9,13.9-13.9V23.3c-3.5,0-6.9,0.7-10.1,2.1
				c-3,1.3-5.8,3.2-8.2,5.5c-2.4,2.3-4.2,5.1-5.5,8.2c-1.3,3.2-2,6.5-2,10v19.5H94.7z"/>
			<path id="path307399" class="st3" d="M151.8,69c3,0,6-0.6,8.8-1.7c2.7-1.2,5.1-2.8,7.2-4.8c2.1-2.1,3.6-4.5,4.8-7.2
				c1.2-2.8,1.7-5.8,1.7-8.8c0-3.1-0.6-6-1.7-8.8c-1.2-2.7-2.8-5.1-4.8-7.2c-2.1-2.1-4.5-3.6-7.2-4.8c-2.8-1.2-5.8-1.7-8.8-1.7
				c-3,0-6,0.6-8.8,1.7c-2.7,1.2-5.1,2.8-7.2,4.8c-2.1,2.1-3.6,4.5-4.8,7.2c-1.1,2.8-1.7,5.7-1.7,8.8c0,3,0.6,6,1.7,8.8
				c1.2,2.7,2.8,5.1,4.8,7.2c2.1,2.1,4.5,3.6,7.2,4.8C145.8,68.4,148.8,69,151.8,69z M151.8,35.8c5.9,0,10.7,4.8,10.7,10.7
				s-4.8,10.7-10.7,10.7c-5.9,0-10.7-4.8-10.7-10.7S145.9,35.8,151.8,35.8z"/>
			<path id="path307401" class="st4" d="M220.8,69c3,0,6-0.6,8.8-1.7c2.7-1.2,5.1-2.8,7.2-4.8c2.1-2.1,3.6-4.5,4.8-7.2
				c1.2-2.8,1.7-5.8,1.7-8.8c0-3.1-0.6-6-1.7-8.8c-1.2-2.7-2.8-5.1-4.8-7.2c-2.1-2.1-4.5-3.6-7.2-4.8c-2.8-1.2-5.8-1.7-8.8-1.7
				c-3,0-6,0.6-8.8,1.7c-2.7,1.2-5.1,2.8-7.2,4.8c-2.1,2.1-3.6,4.5-4.8,7.2c-1.1,2.8-1.7,5.7-1.7,8.8c0,3,0.6,6,1.7,8.8
				c1.2,2.7,2.8,5.1,4.8,7.2c2.1,2.1,4.5,3.6,7.2,4.8C214.8,68.4,217.8,69,220.8,69z M220.8,35.8c5.9,0,10.7,4.8,10.7,10.7
				s-4.8,10.7-10.7,10.7c-5.9,0-10.7-4.8-10.7-10.7S215,35.8,220.8,35.8z"/>
			<path id="path307403" class="st5" d="M280,68.5h9.9l18-44.1H295L285,50l-9.9-25.7h-13L280,68.5z"/>
			<path id="path307405" class="st6" d="M347.4,68.8c3.1,0,6.1-0.6,8.9-1.9c2.8-1.2,5.2-2.9,7.3-5.1l-8.4-7.9
				c-2.1,2.2-4.8,3.4-7.8,3.4c-3.9,0-7.3-2.1-9.2-5.1h31.4v-5.8c0-5.9-2.3-11.6-6.5-15.8c-4.2-4.2-9.8-6.6-15.8-6.6
				c-6,0-11.6,2.4-15.8,6.6c-4.2,4.2-6.5,9.8-6.5,15.8s2.3,11.6,6.5,15.8C335.8,66.4,341.4,68.8,347.4,68.8L347.4,68.8z M338.2,40.8
				c1.9-3.1,5.3-5.1,9.2-5.1c3.8,0,7.2,2.1,9.2,5.1H338.2z"/>
			<path id="path307407" class="st7" d="M429.6,30.4c-4.2-4.2-9.8-6.5-15.7-6.5c-5.9,0-11.6,2.3-15.8,6.5c-4.2,4.2-6.5,9.7-6.5,15.7
				s2.3,11.5,6.5,15.7c4.2,4.2,9.8,6.5,15.8,6.5c3.5,0,6.9-0.8,9.9-2.3c-1.2,4.4-5.2,7.5-9.9,7.5c-2.7,0-5.2-1-7.1-2.9l-8.2,8.6
				c4.2,4,9.6,6.1,15.3,6.1c5.9,0,11.6-2.3,15.8-6.5s6.5-9.7,6.5-15.7V46.1C436.1,40.1,433.8,34.6,429.6,30.4L429.6,30.4z
				 M413.9,56.4c-5.7,0-10.4-4.6-10.4-10.3s4.7-10.4,10.4-10.4s10.3,4.7,10.3,10.4S419.5,56.4,413.9,56.4z"/>
			<path id="path307409" class="st8" d="M494,23.9l0.1,2.5c-3.2-1.6-6.7-2.5-10.2-2.5c-3,0-6,0.6-8.8,1.7c-2.7,1.2-5.1,2.8-7.2,4.8
				c-2.1,2.1-3.6,4.5-4.8,7.2c-1.1,2.8-1.7,5.8-1.7,8.8c0,3,0.6,6,1.7,8.8c1.2,2.7,2.8,5.1,4.8,7.2c2.1,2.1,4.5,3.6,7.2,4.8
				c2.8,1.1,5.8,1.7,8.8,1.7c3.6,0,7-0.9,10.2-2.5l-0.1,1.8h11.9V23.9L494,23.9z M489.2,55.7c-1.6,1-3.5,1.5-5.4,1.5
				c-5.9,0-10.7-4.8-10.7-10.7s4.8-10.7,10.7-10.7c2.1,0,4.1,0.6,5.8,1.7c1.7,1,3.1,2.6,3.9,4.4c0.7,1.4,1,2.9,1,4.5
				c0,1.9-0.5,3.7-1.4,5.4C492.2,53.5,490.9,54.9,489.2,55.7z"/>
			<path id="path307411" class="st9" d="M534.2,68.5h12V4.6l-12,4V68.5z"/>
			<path id="path307413" class="st10" d="M605.1,23.9l0.1,2.5C602,24.8,598.5,24,595,24c-3,0-6,0.6-8.8,1.7
				c-2.7,1.2-5.1,2.8-7.2,4.8c-2.1,2.1-3.6,4.5-4.8,7.2c-1.1,2.8-1.7,5.8-1.7,8.8c0,3,0.6,6,1.7,8.8c1.2,2.7,2.8,5.1,4.8,7.2
				c2.1,2.1,4.5,3.6,7.2,4.8c2.8,1.1,5.8,1.7,8.8,1.7c3.6,0,7-0.9,10.2-2.5l-0.1,1.8H617V23.9L605.1,23.9z M600.4,55.7
				c-1.6,1-3.5,1.5-5.4,1.5c-5.9,0-10.7-4.8-10.7-10.7s4.8-10.7,10.7-10.7c2.1,0,4.1,0.6,5.8,1.7c1.7,1,3.1,2.6,3.9,4.4
				c0.7,1.4,1,2.9,1,4.5c0,1.9-0.5,3.7-1.4,5.4C603.3,53.5,602,54.9,600.4,55.7z"/>
			<path id="path307415" class="st11" d="M670.7,68.5h14.1l-16.1-22.2l15.9-21.9h-14.3l-8.8,12.3l-8.6-12.3h-14.6l16.1,21.9
				l-16,22.3h14l9.2-12.2L670.7,68.5z"/>
			<path id="path307417" class="st12" d="M710.8,84.2h12.6l24.1-59.8h-12.7l-10,25l-10.6-25h-13.1l17.7,39.9L710.8,84.2z"/>
		</g>
		<g class="st0">
			<defs>
				<polygon id="SVGID_1_" points="-132,-338 -131,-338 -132,-337 				"/>
			</defs>
			<defs>
				<polygon id="SVGID_00000159446555008945217000000014568050001890182318_" points="-134,-340 -135,-340 -134,-341 				"/>
			</defs>
			<clipPath id="SVGID_00000147915486104940698660000011267780791114740874_" class="st13">
				<use xlink:href="#SVGID_1_"  style="overflow:visible;"/>
			</clipPath>
			
				<clipPath id="SVGID_00000040544006037932071490000015000605679611995277_" style="display:inline;clip-path:url(#SVGID_00000147915486104940698660000011267780791114740874_);">
				<use xlink:href="#SVGID_00000159446555008945217000000014568050001890182318_"  style="overflow:visible;"/>
			</clipPath>
		</g>
	</g>
</g>
</svg>
