<svg xmlns:dc="http://purl.org/dc/elements/1.1/" xmlns:cc="http://creativecommons.org/ns#" xmlns:rdf="http://www.w3.org/1999/02/22-rdf-syntax-ns#" xmlns:svg="http://www.w3.org/2000/svg" xmlns="http://www.w3.org/2000/svg" xmlns:xlink="http://www.w3.org/1999/xlink" id="svg307386" viewBox="0 0 1024 768" height="768px" width="1024px" version="1.1">
  <metadata id="metadata307392">
    <rdf:rdf>
      <cc:work rdf:about="">
        <dc:format>image/svg+xml</dc:format>
        <dc:type rdf:resource="http://purl.org/dc/dcmitype/StillImage"></dc:type>
      </cc:work>
    </rdf:rdf>
  </metadata>
  <defs id="defs307390"></defs>
  <linearGradient spreadMethod="pad" y2="30%" x2="-10%" y1="120%" x1="30%" id="3d_gradient2-logo-984c3128-abbd-4f55-9c5a-620333d4905a">
    <stop id="stop307367" stop-opacity="1" stop-color="#ffffff" offset="0%"></stop>
    <stop id="stop307369" stop-opacity="1" stop-color="#000000" offset="100%"></stop>
  </linearGradient>
  <linearGradient gradientTransform="rotate(-30)" spreadMethod="pad" y2="30%" x2="-10%" y1="120%" x1="30%" id="3d_gradient3-logo-984c3128-abbd-4f55-9c5a-620333d4905a">
    <stop id="stop307372" stop-opacity="1" stop-color="#ffffff" offset="0%"></stop>
    <stop id="stop307374" stop-opacity="1" stop-color="#cccccc" offset="50%"></stop>
    <stop id="stop307376" stop-opacity="1" stop-color="#000000" offset="100%"></stop>
  </linearGradient>
  <g id="logo-group">
    <image xlink:href="" id="container" x="272" y="144" width="480" height="480" style="display: none;" transform="translate(0 0)"></image>
    <g id="logo-center" transform="translate(1.1368683772161603e-13 0)">
      <image xlink:href="" id="icon_container" x="0" y="0" style="display: none;"></image>
      <g id="slogan" style="font-style:normal;font-weight:400;font-size:32px;line-height:1;font-family:Montserrat;font-variant-ligatures:none;text-align:center;text-anchor:middle" transform="translate(0 0)"></g>
      <g id="title" style="font-style:normal;font-weight:700;font-size:72px;line-height:1;font-family:'Brandmark1 Bold';font-variant-ligatures:normal;text-align:center;text-anchor:middle" transform="translate(0 0)">
        <path id="path307395" style="font-style:normal;font-weight:700;font-size:72px;line-height:1;font-family:'Brandmark1 Bold';font-variant-ligatures:normal;text-align:center;text-anchor:middle" d="m 322.76375,-32.112 c -3.816,-3.816 -8.928,-5.904 -14.256,-5.904 -5.4,0 -10.512,2.088 -14.328,5.904 -3.816,3.816 -5.904,8.856 -5.904,14.256 0,5.4 2.088,10.44 5.904,14.256 3.816,3.816 8.928,5.904 14.328,5.904 3.168,0 6.264,-0.72 9,-2.088 -1.08,3.96 -4.752,6.84 -9,6.84 -2.448,0 -4.752,-0.936 -6.48,-2.592 l -7.488,7.848 c 3.816,3.6 8.712,5.544 13.896,5.544 5.4,0 10.512,-2.088 14.328,-5.904 3.816,-3.816 5.904,-8.856 5.904,-14.256 v -15.552 c 0,-5.4 -2.088,-10.44 -5.904,-14.256 z m -14.256,23.616 c -5.184,0 -9.432,-4.176 -9.432,-9.36 0,-5.184 4.248,-9.432 9.432,-9.432 5.184,0 9.36,4.248 9.36,9.432 0,5.184 -4.248,9.36 -9.36,9.36 z" stroke-width="0" stroke-linejoin="miter" stroke-miterlimit="2" fill="#aea9a3" stroke="#aea9a3" transform="translate(0 299.1988) translate(143.57239099999998 63.6944) scale(1.1) translate(-288.27575 38.016)"></path>
        <path id="path307397" style="font-style:normal;font-weight:700;font-size:72px;line-height:1;font-family:'Brandmark1 Bold';font-variant-ligatures:normal;text-align:center;text-anchor:middle" d="m 344.76762,2.52 v 0 -17.712 c 0,-6.912 5.616,-12.6 12.6,-12.6 v -10.8 c -3.16799,0 -6.26399,0.648 -9.14399,1.872 -2.73601,1.152 -5.25601,2.88 -7.416,5.04 -2.16001,2.088 -3.81601,4.608 -5.04001,7.416 -1.22399,2.88 -1.8,5.904 -1.8,9.072 V 2.52 Z" stroke-width="0" stroke-linejoin="miter" stroke-miterlimit="2" fill="#a9a59f" stroke="#a9a59f" transform="translate(0 299.1988) translate(215.83344799999998 63.0608) scale(1.1) translate(-333.96762 38.592)"></path>
        <path id="path307399" style="font-style:normal;font-weight:700;font-size:72px;line-height:1;font-family:'Brandmark1 Bold';font-variant-ligatures:normal;text-align:center;text-anchor:middle" d="m 376.65575,3.024 c 2.736,0 5.472,-0.576 7.992,-1.584 2.448,-1.08 4.68,-2.52 6.552,-4.392 1.872,-1.944 3.312,-4.104 4.392,-6.552 1.08,-2.52 1.584,-5.256 1.584,-7.992 0,-2.808 -0.504,-5.472 -1.584,-7.992 -1.08,-2.448 -2.52,-4.68 -4.392,-6.552 -1.944,-1.872 -4.104,-3.312 -6.552,-4.392 -2.52,-1.08 -5.256,-1.584 -7.992,-1.584 -2.736,0 -5.472,0.504 -7.992,1.584 -2.448,1.08 -4.608,2.52 -6.552,4.392 -1.872,1.944 -3.312,4.104 -4.392,6.552 -1.008,2.52 -1.584,5.184 -1.584,7.992 0,2.736 0.576,5.472 1.584,7.992 1.08,2.448 2.52,4.608 4.392,6.552 1.944,1.872 4.104,3.312 6.552,4.392 2.52,1.008 5.256,1.584 7.992,1.584 z m 0,-30.24 c 5.328,0 9.72,4.392 9.72,9.72 0,5.328 -4.392,9.72 -9.72,9.72 -5.328,0 -9.72,-4.392 -9.72,-9.72 0,-5.328 4.392,-9.72 9.72,-9.72 z" stroke-width="0" stroke-linejoin="miter" stroke-miterlimit="2" fill="#a5a09b" stroke="#a5a09b" transform="translate(0 299.1988) translate(262.218391 63.6944) scale(1.1) translate(-356.13575 38.016)"></path>
        <path id="path307401" style="font-style:normal;font-weight:700;font-size:72px;line-height:1;font-family:'Brandmark1 Bold';font-variant-ligatures:normal;text-align:center;text-anchor:middle" d="m 419.40575,3.024 c 2.736,0 5.472,-0.576 7.992,-1.584 2.448,-1.08 4.68,-2.52 6.552,-4.392 1.872,-1.944 3.312,-4.104 4.392,-6.552 1.08,-2.52 1.584,-5.256 1.584,-7.992 0,-2.808 -0.504,-5.472 -1.584,-7.992 -1.08,-2.448 -2.52,-4.68 -4.392,-6.552 -1.944,-1.872 -4.104,-3.312 -6.552,-4.392 -2.52,-1.08 -5.256,-1.584 -7.992,-1.584 -2.736,0 -5.472,0.504 -7.992,1.584 -2.448,1.08 -4.608,2.52 -6.552,4.392 -1.872,1.944 -3.312,4.104 -4.392,6.552 -1.008,2.52 -1.584,5.184 -1.584,7.992 0,2.736 0.576,5.472 1.584,7.992 1.08,2.448 2.52,4.608 4.392,6.552 1.944,1.872 4.104,3.312 6.552,4.392 2.52,1.008 5.256,1.584 7.992,1.584 z m 0,-30.24 c 5.328,0 9.72,4.392 9.72,9.72 0,5.328 -4.392,9.72 -9.72,9.72 -5.328,0 -9.72,-4.392 -9.72,-9.72 0,-5.328 4.392,-9.72 9.72,-9.72 z" stroke-width="0" stroke-linejoin="miter" stroke-miterlimit="2" fill="#a09c96" stroke="#a09c96" transform="translate(0 299.1988) translate(331.243391 63.6944) scale(1.1) translate(-398.88575 38.016)"></path>
        <path id="path307403" style="font-style:normal;font-weight:700;font-size:72px;line-height:1;font-family:'Brandmark1 Bold';font-variant-ligatures:normal;text-align:center;text-anchor:middle" d="m 453.19963,2.52 h 9 l 16.344,-40.104 h -11.736 l -9.072,23.328 -9,-23.328 h -11.80801 z" stroke-width="0" stroke-linejoin="miter" stroke-miterlimit="2" fill="#9c9892" stroke="#9c9892" transform="translate(0 299.1988) translate(395.08944799999995 64.1696) scale(1.1) translate(-436.92762 37.584)"></path>
        <path id="path307405" style="font-style:normal;font-weight:700;font-size:72px;line-height:1;font-family:'Brandmark1 Bold';font-variant-ligatures:normal;text-align:center;text-anchor:middle" d="m 494.46913,2.808 c 2.80799,0 5.54399,-0.576 8.13599,-1.728 2.52001,-1.08 4.752,-2.664 6.624,-4.608 l -7.632,-7.2 c -1.872,2.016 -4.392,3.096 -7.12799,3.096 -3.52801,0 -6.62401,-1.872 -8.35201,-4.608 h 28.58401 v -5.256 c 0,-5.4 -2.08801,-10.512 -5.90401,-14.328 -3.81599,-3.816 -8.928,-5.976 -14.32799,-5.976 -5.47201,0 -10.512,2.16 -14.40001,5.976 -3.816,3.816 -5.904,8.928 -5.904,14.328 0,5.4 2.088,10.512 5.904,14.328 3.88801,3.816 8.928,5.976 14.40001,5.976 z m -8.35201,-25.488 c 1.728,-2.808 4.824,-4.68 8.35201,-4.68 3.45599,0 6.55199,1.872 8.35199,4.68 z" stroke-width="0" stroke-linejoin="miter" stroke-miterlimit="2" fill="#97938e" stroke="#97938e" transform="translate(0 299.1988) translate(458.0506979999999 63.932) scale(1.1) translate(-474.16512 37.8)"></path>
        <path id="path307407" style="font-style:normal;font-weight:700;font-size:72px;line-height:1;font-family:'Brandmark1 Bold';font-variant-ligatures:normal;text-align:center;text-anchor:middle" d="m 549.17,-32.112 c -3.816,-3.816 -8.928,-5.904 -14.256,-5.904 -5.4,0 -10.512,2.088 -14.328,5.904 -3.816,3.816 -5.904,8.856 -5.904,14.256 0,5.4 2.088,10.44 5.904,14.256 3.816,3.816 8.928,5.904 14.328,5.904 3.168,0 6.264,-0.72 9,-2.088 -1.08,3.96 -4.752,6.84 -9,6.84 -2.448,0 -4.752,-0.936 -6.48,-2.592 l -7.488,7.848 c 3.816,3.6 8.712,5.544 13.896,5.544 5.4,0 10.512,-2.088 14.328,-5.904 3.816,-3.816 5.904,-8.856 5.904,-14.256 v -15.552 c 0,-5.4 -2.088,-10.44 -5.904,-14.256 z m -14.256,23.616 c -5.184,0 -9.432,-4.176 -9.432,-9.36 0,-5.184 4.248,-9.432 9.432,-9.432 5.184,0 9.36,4.248 9.36,9.432 0,5.184 -4.248,9.36 -9.36,9.36 z" stroke-width="0" stroke-linejoin="miter" stroke-miterlimit="2" fill="#918d88" stroke="#918d88" transform="translate(0 299.1988) translate(524.6192659999999 63.6944) scale(1.1) translate(-514.682 38.016)"></path>
        <path id="path307409" style="font-style:normal;font-weight:700;font-size:72px;line-height:1;font-family:'Brandmark1 Bold';font-variant-ligatures:normal;text-align:center;text-anchor:middle" d="m 587.73387,-38.016 0.072,2.304 c -2.88,-1.44 -6.048,-2.232 -9.28801,-2.232 -2.73599,0 -5.47199,0.504 -7.99199,1.584 -2.44801,1.08 -4.60801,2.52 -6.552,4.392 -1.87201,1.872 -3.31201,4.104 -4.39201,6.552 -1.00799,2.52 -1.58399,5.256 -1.58399,7.992 0,2.736 0.576,5.472 1.58399,7.992 1.08,2.448 2.52,4.608 4.39201,6.552 1.94399,1.872 4.10399,3.312 6.552,4.392 2.52,1.008 5.256,1.584 7.99199,1.584 3.24001,0 6.40801,-0.792 9.28801,-2.232 l -0.072,1.656 h 10.8 v -40.536 z m -4.32,28.944 c -1.43999,0.864 -3.168,1.368 -4.896,1.368 -5.32799,0 -9.72,-4.392 -9.72,-9.72 0,-5.328 4.39201,-9.72 9.72,-9.72 1.872,0 3.74401,0.504 5.256,1.584 1.58401,0.936 2.808,2.376 3.528,4.032 0.64801,1.296 0.93601,2.664 0.93601,4.104 0,1.728 -0.432,3.384 -1.29601,4.896 -0.864,1.44 -2.01599,2.664 -3.528,3.456 z" stroke-width="0" stroke-linejoin="miter" stroke-miterlimit="2" fill="#8a8681" stroke="#8a8681" transform="translate(0 299.1988) translate(594.2667229999998 63.6944) scale(1.1) translate(-557.99787 38.016)"></path>
        <path id="path307411" style="font-style:normal;font-weight:700;font-size:72px;line-height:1;font-family:'Brandmark1 Bold';font-variant-ligatures:normal;text-align:center;text-anchor:middle" d="m 604.259,2.52 h 10.872 v -58.032 l -10.872,3.6 z" stroke-width="0" stroke-linejoin="miter" stroke-miterlimit="2" fill="#827e79" stroke="#827e79" transform="translate(0 299.1988) translate(667.1539659999999 44.4488) scale(1.1) translate(-604.259 55.512)"></path>
        <path id="path307413" style="font-style:normal;font-weight:700;font-size:72px;line-height:1;font-family:'Brandmark1 Bold';font-variant-ligatures:normal;text-align:center;text-anchor:middle" d="m 648.76512,-38.016 0.072,2.304 c -2.88,-1.44 -6.048,-2.232 -9.28801,-2.232 -2.73599,0 -5.47199,0.504 -7.99199,1.584 -2.44801,1.08 -4.60801,2.52 -6.552,4.392 -1.87201,1.872 -3.31201,4.104 -4.39201,6.552 -1.00799,2.52 -1.58399,5.256 -1.58399,7.992 0,2.736 0.576,5.472 1.58399,7.992 1.08,2.448 2.52,4.608 4.39201,6.552 1.94399,1.872 4.10399,3.312 6.552,4.392 2.52,1.008 5.256,1.584 7.99199,1.584 3.24001,0 6.40801,-0.792 9.28801,-2.232 l -0.072,1.656 h 10.8 v -40.536 z m -4.32,28.944 c -1.43999,0.864 -3.168,1.368 -4.896,1.368 -5.32799,0 -9.72,-4.392 -9.72,-9.72 0,-5.328 4.39201,-9.72 9.72,-9.72 1.872,0 3.74401,0.504 5.256,1.584 1.58401,0.936 2.808,2.376 3.528,4.032 0.64801,1.296 0.93601,2.664 0.93601,4.104 0,1.728 -0.432,3.384 -1.29601,4.896 -0.864,1.44 -2.01599,2.664 -3.528,3.456 z" stroke-width="0" stroke-linejoin="miter" stroke-miterlimit="2" fill="#797571" stroke="#797571" transform="translate(0 299.1988) translate(705.4010979999999 63.6944) scale(1.1) translate(-619.02912 38.016)"></path>
        <path id="path307415" style="font-style:normal;font-weight:700;font-size:72px;line-height:1;font-family:'Brandmark1 Bold';font-variant-ligatures:normal;text-align:center;text-anchor:middle" d="m 688.40225,2.52 h 12.816 l -14.616,-20.16 14.472,-19.944 h -13.032 l -7.992,11.16 -7.848,-11.16 h -13.248 l 14.616,19.872 -14.544,20.232 h 12.744 l 8.352,-11.088 z" stroke-width="0" stroke-linejoin="miter" stroke-miterlimit="2" fill="#706c68" stroke="#706c68" transform="translate(0 299.1988) translate(771.3187409999999 64.1696) scale(1.1) translate(-658.95425 37.584)"></path>
        <path id="path307417" style="font-style:normal;font-weight:700;font-size:72px;line-height:1;font-family:'Brandmark1 Bold';font-variant-ligatures:normal;text-align:center;text-anchor:middle" d="m 704.80813,16.776 h 11.44799 l 21.88801,-54.36 h -11.52 l -9.072,22.752 -9.648,-22.752 h -11.88 l 16.05599,36.288 z" stroke-width="0" stroke-linejoin="miter" stroke-miterlimit="2" fill="#676360" stroke="#676360" transform="translate(0 299.1988) translate(834.095609 64.1696) scale(1.1) translate(-696.02413 37.584)"></path>
      </g>
      <image xlink:href="" id="icon" x="0" y="0" style="display: none;"></image>
    </g>
  </g>
</svg>